<?xml version="1.0" encoding="UTF-8"?>
<svg fill="#9F392B" width="100pt" height="100pt" version="1.1" viewBox="0 0 100 100" xmlns="http://www.w3.org/2000/svg">
 <g>
  <path d="m85.469 23.906-18.75-18.75c-0.28125-0.30469-0.67969-0.47266-1.0938-0.46875h-45.531c-3.3242 0.015625-6.0156 2.707-6.0312 6.0312v29.906c0 0.86328 0.69922 1.5625 1.5625 1.5625s1.5625-0.69922 1.5625-1.5625v-29.906c0-1.6055 1.3008-2.9062 2.9062-2.9062h43.969v17.188c0 0.41406 0.16406 0.8125 0.45703 1.1055s0.69141 0.45703 1.1055 0.45703h17.188v62.719c0 1.6055-1.3008 2.9062-2.9062 2.9062h-59.812c-1.6055 0-2.9062-1.3008-2.9062-2.9062v-8.0312c0-0.86328-0.69922-1.5625-1.5625-1.5625s-1.5625 0.69922-1.5625 1.5625v8.0312c0.015625 3.3242 2.707 6.0156 6.0312 6.0312h59.812c3.3242-0.015625 6.0156-2.707 6.0312-6.0312v-64.281c0.003906-0.41406-0.16406-0.8125-0.46875-1.0938zm-18.281-13.875 13.406 13.406h-13.406z"/>
  <path d="m39.562 55.344h-2.75v11.156h3.125c1.6406 0.10938 3.2656-0.39062 4.5625-1.4062 1.0938-1.0938 1.6641-2.6094 1.5625-4.1562-0.09375-3.75-2.3125-5.5938-6.5-5.5938z"/>
  <path d="m23.656 55.281h-2.8125v6.5312h3.125c1.1172 0.14453 2.2461-0.17188 3.125-0.875 0.67578-0.67969 1.0469-1.6055 1.0312-2.5625 0.082031-0.92969-0.31641-1.8398-1.0625-2.4062-1.0469-0.54688-2.2305-0.78516-3.4062-0.6875z"/>
  <path d="m73.438 71.5v-21.125c0.007812-1.3438-0.52344-2.6367-1.4727-3.5898-0.95312-0.94922-2.2461-1.4805-3.5898-1.4727h-55.5c-1.3438-0.007812-2.6367 0.52344-3.5898 1.4727-0.94922 0.95312-1.4805 2.2461-1.4727 3.5898v21.125c-0.007812 1.3438 0.52344 2.6367 1.4727 3.5898 0.95312 0.94922 2.2461 1.4805 3.5898 1.4727h55.5c1.3438 0.007812 2.6367-0.52344 3.5898-1.4727 0.94922-0.95312 1.4805-2.2461 1.4727-3.5898zm-44.375-8.5625c-1.5703 1.0312-3.4375 1.5156-5.3125 1.375h-2.9062v4.7812h-2.75v-16.312h5.5938c1.9141-0.17188 3.8281 0.33594 5.4062 1.4375 1.2227 1.1133 1.8555 2.7305 1.7188 4.375 0.12891 1.6406-0.51562 3.25-1.75 4.3438zm17.406 3.9375c-1.957 1.6172-4.4688 2.4141-7 2.2188h-5.4062v-16.312h5.5938c2.4336-0.16016 4.8359 0.60938 6.7188 2.1562 1.6211 1.5234 2.4922 3.6836 2.375 5.9062 0.10938 2.2383-0.71875 4.4219-2.2812 6.0312zm16.656-11.531h-8.0938v4.5h7.2188v2.6562h-7.2188v6.7188h-2.75v-16.438h10.875z"/>
 </g>
</svg>
